<?xml version="1.0" encoding="utf-8"?>
<!-- Generator: Adobe Illustrator 24.1.1, SVG Export Plug-In . SVG Version: 6.00 Build 0)  -->
<svg version="1.1" id="Capa_1" xmlns="http://www.w3.org/2000/svg" xmlns:xlink="http://www.w3.org/1999/xlink" x="0px" y="0px"
	 viewBox="0 0 512 512" style="enable-background:new 0 0 512 512;" xml:space="preserve">
<g>
	<g>
		<g>
			<path d="M260.6,512c-20.4,0-39.4-8.2-53.3-23.1c-14-14.9-21-34.3-19.7-54.7l0.9-14.7c0.3-4.2,3.8-7.3,8-7c4.2,0.3,7.3,3.8,7,8
				l-0.9,14.7c-1,16.2,4.5,31.6,15.6,43.4c11.1,11.8,26.1,18.3,42.4,18.3c27.2,0,50.5-18.5,56.6-45.1l3.8-16.4
				c1-4.2,1.8-8.6,2.6-13.2c0.7-4.1,4.6-6.9,8.7-6.2c4.1,0.7,6.9,4.6,6.2,8.7c-0.8,4.9-1.7,9.6-2.8,14.1l-3.8,16.4
				C324.3,488.7,294.9,512,260.6,512L260.6,512z"/>
			<path d="M198.1,395.5c-0.2,0-0.3,0-0.5,0c-4.2-0.3-7.3-3.8-7-8l1-15.2c1.1-17.2,0.4-34.6-1.9-51.8c-0.6-4.1,2.3-7.9,6.4-8.5
				c4.1-0.6,7.9,2.3,8.5,6.4c2.5,18.2,3.2,36.6,2.1,54.8l-1,15.2C205.3,392.4,202,395.5,198.1,395.5z"/>
			<path d="M474.3,418.4c-2.7,0-5.3-1.5-6.7-4.1l-27.7-53.2c-1.7-3.3-2.6-7-2.6-10.8v-27.2c0-4.2,3.4-7.5,7.5-7.5s7.5,3.4,7.5,7.5
				v27.2c0,1.3,0.3,2.6,0.9,3.8l27.7,53.2c1.9,3.7,0.5,8.2-3.2,10.2C476.6,418.1,475.4,418.4,474.3,418.4L474.3,418.4z"/>
			<path d="M118.2,361.7c-1.6,0-3.1-0.5-4.5-1.5c-3.3-2.5-4.1-7.2-1.6-10.5l30.6-41.4c0.7-1,1.7-1.8,2.9-2.4l10.5-4.9
				c12.8-5.9,23.7-15.3,31.7-27c2.3-3.4,7-4.3,10.5-2c3.4,2.3,4.3,7,2,10.5c-9.5,14-22.5,25.1-37.8,32.2l-8.8,4.1l-29.5,39.8
				C122.8,360.7,120.5,361.7,118.2,361.7z"/>
			<path d="M439.8,235.8l-79.7-68.1c0.1-13.3-2.9-26.3-9-38.2c0.3-0.1,0.6-0.2,0.9-0.4c11.8-5.2,20.1-15.9,22.4-28.6
				c1.4-8.1-0.9-16.1-6.4-22.2c-5.5-6.1-13.3-9.2-21.5-8.5c-0.8,0.1-1.7,0.2-2.5,0.3c-0.1-0.5-0.1-1-0.2-1.5
				c-1.2-9-6.4-16.8-14.3-21.3c-7.1-4.1-15.5-5-23.2-2.6c-2.8-8.4-9.2-15-17.5-18.1c-6.7-2.5-13.8-2.4-20.3,0c-1.2-2.4-2.5-4.8-4-7
				c-5.9-8.5-15.2-13.7-25.5-14.2c-8.3-0.5-16.3,2.2-22.6,7.3c0,0,0,0,0-0.1C209,4.5,198.7,0,188,0c-13.1,0-25.1,6.6-32.2,17.7
				c-7,11.1-7.8,24.8-2.2,36.7l1.4,3c1.8,3.8,3.2,7.7,4.2,11.8l-81.8,69.3C66.2,148,59.7,162,59.7,176.8v80.6c0,1.3-0.3,2.6-0.9,3.8
				l-27.7,53.2c-1.9,3.7-0.5,8.2,3.2,10.2c1.1,0.6,2.3,0.9,3.5,0.9c2.7,0,5.3-1.5,6.7-4.1l27.7-53.2c1.7-3.3,2.6-7,2.6-10.8v-80.6
				c0-10.4,4.5-20.2,12.5-26.9l73.6-62.4c-0.1,1.2-0.2,2.4-0.4,3.7l-2.1,15.9c-0.3,2.1-0.5,4.3-0.8,6.4l-27.3,32.6
				c-3.4,4.1-4.9,9.5-4,14.7l9.8,60c1.3,8.1,8.2,14,16.4,14h11.5c5.8,0,11.3-3.1,14.3-8.1l15.9-26.5c1.6-2.7,4.3-4.6,7.4-5.3
				c3.1-0.7,6.3-0.1,9,1.7l1.4,0.9c4.6,3.1,6.4,9.1,4.2,14.2L201.5,246c-1.6,3.8,0.1,8.3,4,9.9c1,0.4,2,0.6,3,0.6
				c2.9,0,5.7-1.7,6.9-4.6l14.7-34.3c5-11.8,1-25.5-9.6-32.6L219,184c-6.1-4.1-13.5-5.5-20.7-3.9c-7.2,1.6-13.3,6-17,12.3
				l-15.9,26.5c-0.3,0.5-0.8,0.8-1.4,0.8h-11.5c-0.8,0-1.5-0.6-1.6-1.3l-9.8-60c-0.2-0.9,0.1-1.9,0.7-2.7l13.9-16.6
				c-0.4,13.1-0.1,26.1,1,39.1c0.3,4.1,4,7.2,8.1,6.9c4.1-0.3,7.2-4,6.9-8.1c-1.9-22.6-1.4-45.5,1.5-68l2.1-15.9
				c1-7.5,0.8-15-0.4-22.4c0-0.1,0-0.2,0-0.3c0,0,0,0,0,0c-1.2-6.8-3.3-13.3-6.2-19.5l-1.4-3c-3.4-7.2-2.9-15.4,1.3-22.1
				c4.2-6.7,11.5-10.7,19.4-10.7c6.6,0,12.6,2.7,17,7.5s6.5,11.1,5.9,17.6l-0.4,4.2c-0.7,7.6,0.5,15.3,3.6,22.3
				c6.1,13.8,18.7,23.6,33.7,26L287,99c10.4,1.7,20,5.6,28.3,11.3c0.3,0.2,0.5,0.4,0.8,0.6c6.4,4.6,12,10.2,16.6,16.9
				c0.2,0.2,0.3,0.5,0.5,0.7c0,0,0,0,0,0c10.4,15.4,14.2,33.9,10.5,52.2l-15.3,76.7c-0.8,4.1,1.8,8,5.9,8.9c0.5,0.1,1,0.1,1.5,0.1
				c3.5,0,6.7-2.5,7.4-6.1l7.1-35.5l20.1,24c0.5,0.6,0.7,1.4,0.6,2.2l-9.7,59.5c-0.2,1.2-1.2,2.1-2.5,2.1h-10.3
				c-0.9,0-1.7-0.5-2.1-1.2l-15.2-25.3c-3.9-6.5-10.2-11-17.6-12.7c-7.4-1.7-15-0.2-21.3,4c-11,7.4-15.2,21.5-10,33.7l20.7,48.4
				c9.1,21.3,25.8,38.5,46.8,48.2l8.5,3.9l29.5,39.8c1.5,2,3.8,3.1,6.1,3.1c1.6,0,3.1-0.5,4.5-1.5c3.3-2.5,4.1-7.2,1.6-10.5
				l-30.6-41.4c-0.7-1-1.7-1.8-2.9-2.4l-10.2-4.8c-17.7-8.2-31.6-22.6-39.3-40.5l-20.7-48.4c-2.4-5.5-0.5-11.9,4.5-15.3
				c2.9-1.9,6.3-2.6,9.7-1.8c3.4,0.8,6.2,2.8,8,5.8l15.2,25.3c3.2,5.3,8.9,8.5,15,8.5h10.3c8.6,0,15.9-6.2,17.3-14.7l9.7-59.5
				c0.8-5.1-0.6-10.3-3.9-14.2L354,205.9l4-20.2l72,61.5c4.6,3.9,7.2,9.6,7.2,15.6V291c0,4.2,3.4,7.5,7.5,7.5s7.5-3.4,7.5-7.5v-28.1
				C452.3,252.4,447.8,242.5,439.8,235.8L439.8,235.8z M347.6,84.8c3.5-0.3,6.8,1.1,9.2,3.6c2.3,2.6,3.4,6,2.8,9.5
				c-1.3,7.7-6.4,14.2-13.6,17.4c-1,0.4-2,0.8-3,1c-3.3-4.3-6.9-8.3-10.9-11.8c4.9-5.1,8.5-11.3,10.4-18
				C344,85.5,345.8,84.9,347.6,84.8z M321.9,60.2c3.8,2.2,6.3,6,6.9,10.4c0.4,3.3,0.3,6.6-0.4,9.7c0,0.1-0.1,0.3-0.1,0.4
				c-1.3,5.5-4.2,10.6-8.6,14.6c-6.7-4.1-13.9-7.2-21.6-9.3c0.2-0.2,0.4-0.5,0.6-0.7c5.9-7.3,9.2-16.3,9.5-25.4
				c0.4-0.2,0.7-0.4,1.1-0.5C313.6,57.7,318.1,58,321.9,60.2L321.9,60.2z M283.5,40.6c4.1,1.5,7.3,4.8,8.6,9
				c0.7,2.2,1.1,4.5,1.3,6.8c0,0,0,0,0,0.1c0.4,6.9-1.8,13.8-6.2,19.3c-2,2.4-4.5,4.5-7.4,5.8l-1.5,0.7l-17.1-2.8
				c3.7-3.8,6.6-8.4,8.5-13.3c3.2-8.2,4.2-16.9,3-25.3C276.1,39.5,279.9,39.3,283.5,40.6L283.5,40.6z M227.9,60.6
				c-2-4.6-2.9-9.7-2.4-14.8l0.4-4.2c0.5-5.4-0.2-10.8-1.9-15.9c3.7-3.8,8.7-5.8,14-5.5c5.6,0.3,10.7,3.1,14,7.8
				c2.4,3.4,4,7.1,5.1,11c0.1,0.3,0.1,0.5,0.2,0.8c1.6,6.9,1.2,14.2-1.5,20.9c-1.4,3.7-3.7,7-6.6,9.7l-5.9,5.4
				C236.5,72.9,231,67.5,227.9,60.6z"/>
			<path d="M254.1,331.1c-2.7,0-5.3-1.5-6.7-4c-4.9-9.2-7.5-19.7-7.5-30.2c0-18.4,7.8-35.9,21.5-48.2c3.1-2.8,7.9-2.5,10.6,0.6
				c2.8,3.1,2.5,7.9-0.6,10.6c-10.5,9.4-16.5,22.9-16.5,37c0,8.1,2,16.1,5.7,23.2c1.9,3.7,0.5,8.2-3.1,10.2
				C256.5,330.8,255.3,331.1,254.1,331.1L254.1,331.1z"/>
			<path d="M293,248.3c-3.5,0-6.6-2.4-7.4-6c-0.9-4.1,1.8-8.1,5.8-8.9c8.2-1.7,16.9-1.8,25.2-0.3c4.1,0.8,6.8,4.7,6,8.8
				c-0.8,4.1-4.7,6.8-8.8,6c-6.3-1.2-13-1.1-19.3,0.2C294,248.3,293.5,248.3,293,248.3L293,248.3z"/>
			<path d="M257.7,227.5c-0.8,0-1.6-0.1-2.4-0.4c-3.9-1.3-6.1-5.6-4.7-9.5c1.6-4.7,2.4-9.6,2.4-14.6c0-25.3-20.6-45.9-45.9-45.9
				c-3.1,0-6.2,0.3-9.3,0.9c-4.1,0.8-8.1-1.8-8.9-5.9c-0.8-4.1,1.8-8.1,5.9-8.9c4-0.8,8.1-1.2,12.3-1.2c33.6,0,61,27.4,61,61
				c0,6.7-1.1,13.2-3.2,19.4C263.8,225.5,260.8,227.5,257.7,227.5z"/>
		</g>
	</g>
</g>
</svg>
