<svg id="Capa_1" enable-background="new 0 0 512 512" height="512" viewBox="0 0 512 512" width="512" xmlns="http://www.w3.org/2000/svg"><g><path d="m434.828 192.721-46.762-33.066c.918-1.245 1.468-2.778 1.468-4.443 0-4.143-3.357-7.5-7.5-7.5h-5.742v-60.281c0-6.458-5.254-11.712-11.713-11.712h-3.697v-17.69c0-7.154-5.821-12.976-12.976-12.976h-5.238v-5.053h61.313c7.194 0 13.048-5.854 13.048-13.048-.001-14.861-12.092-26.952-26.953-26.952h-22.012c-4.143 0-7.5 3.357-7.5 7.5s3.357 7.5 7.5 7.5h22.012c5.926 0 10.858 4.335 11.793 10h-66.702c-4.143 0-7.5 3.357-7.5 7.5v12.553h-10v-25.053c0-2.757 2.243-5 5-5h15.41c4.143 0 7.5-3.357 7.5-7.5s-3.357-7.5-7.5-7.5h-15.41c-11.028 0-20 8.972-20 20v25.053h-5.237c-7.154 0-12.976 5.821-12.976 12.976v17.69h-3.697c-6.459 0-11.713 5.254-11.713 11.712v60.281h-5.741c-4.143 0-7.5 3.357-7.5 7.5 0 1.665.549 3.198 1.467 4.443l-46.763 33.066c-16.64 11.767-26.574 30.958-26.574 51.337v20.487 63.004c-3.714-4.127-5.727-5.928-13.063-13.322-2.93-2.928-7.678-2.928-10.607 0-4.834 5.461-21.166 18.111-33.259 43.534-22.42-14.109-42.147-14.941-47.566-16.302-1.962-.341-3.975.106-5.603 1.249-1.629 1.143-2.736 2.886-3.079 4.845-.749 6.207-5.218 20.766-2.296 42.004-3.614-.02-6.751-.007-10.346-.011-4.143 0-7.5 3.357-7.5 7.5.467 5.954-2.461 26.745 9.119 52.646 1.693 3.789 6.133 5.475 9.907 3.786 3.782-1.69 5.477-6.126 3.786-9.907-8.85-19.8-7.709-37.947-7.812-39.025 1.441.188 24.606-1.927 49.362 13.273 1.319 29.382 12.635 56.95 32.319 78.768-22.313-2.128-43.242-12.544-58.409-29.32-2.778-3.071-7.52-3.308-10.594-.533-3.072 2.778-3.311 7.521-.533 10.594 19.92 22.034 48.369 34.672 78.051 34.672h19.51c15.437 0 30.108-3.343 43.328-9.342 10.552 6.116 22.506 9.342 34.807 9.342h138.425c38.335 0 69.522-31.188 69.522-69.522v-198.42c0-20.379-9.935-39.571-26.574-51.337zm-135.374-132.668h46.427v15.666h-46.427zm-15.411 30.666h77.247v56.993h-77.247zm-85.111 181.326h184.486c4.143 0 7.5-3.357 7.5-7.5s-3.357-7.5-7.5-7.5h-184.486v-12.987c0-15.518 7.564-30.13 20.234-39.089l59.761-42.257h87.479l59.761 42.257c12.67 8.959 20.234 23.571 20.234 39.089v12.987h-32.996c-4.143 0-7.5 3.357-7.5 7.5s3.357 7.5 7.5 7.5h32.996v115.622h-183.49c2.396-20.122-1.754-33.842-2.537-40.115-.716-4.079-4.602-6.798-8.682-6.093-5.301 1.331-25.135 2.185-47.566 16.302-1.583-3.327-3.319-6.585-5.196-9.77v-75.946zm-15.101 224.551c19.688-21.82 31.007-49.391 32.326-78.777 14.156-8.691 30.359-13.273 47.107-13.273h2.256v2.255c-.001 46.866-35.93 85.492-81.689 89.795zm63.474-105.84c-10.986 1.672-21.597 5.079-31.506 10.1-.863-9.931-2.87-19.625-5.967-28.924 17.906-12.108 36.011-14.114 37.062-14.404.145 1.503 3.577 15.123.411 33.228zm-84.832-57.527 3.092-3.093 3.092 3.093c42.812 42.81 44.182 113.389 0 157.571l-3.092 3.092-3.092-3.093c-43.408-43.405-43.618-113.954 0-157.57zm-78.237 24.299c1.511.416 18.746 2.021 37.062 14.403-3.097 9.299-5.104 18.993-5.967 28.925-9.909-5.021-20.52-8.428-31.506-10.1-3.145-17.984.277-31.833.411-33.228zm307.643 139.472h-138.424c-6.488 0-12.852-1.146-18.84-3.35 50.59-34.649 45.614-89.833 45.905-90.983h165.883v39.811c-.001 30.063-24.46 54.522-54.524 54.522z"/><path d="m330.761 124.518h-16.188c-4.143 0-7.5 3.357-7.5 7.5s3.357 7.5 7.5 7.5h16.188c4.143 0 7.5-3.357 7.5-7.5s-3.357-7.5-7.5-7.5z"/><path d="m276.543 308.535h92.247c4.143 0 7.5-3.357 7.5-7.5s-3.357-7.5-7.5-7.5h-92.247c-4.143 0-7.5 3.357-7.5 7.5s3.358 7.5 7.5 7.5z"/><path d="m276.543 337.355h92.247c4.143 0 7.5-3.357 7.5-7.5s-3.357-7.5-7.5-7.5h-92.247c-4.143 0-7.5 3.357-7.5 7.5s3.358 7.5 7.5 7.5z"/><path d="m276.543 366.177h92.247c4.143 0 7.5-3.357 7.5-7.5s-3.357-7.5-7.5-7.5h-92.247c-4.143 0-7.5 3.357-7.5 7.5s3.358 7.5 7.5 7.5z"/></g></svg>