<?xml version="1.0" encoding="utf-8"?>
<!-- Generator: Adobe Illustrator 24.1.1, SVG Export Plug-In . SVG Version: 6.00 Build 0)  -->
<svg version="1.1" id="Capa_1" xmlns="http://www.w3.org/2000/svg" xmlns:xlink="http://www.w3.org/1999/xlink" x="0px" y="0px"
	 viewBox="0 0 512 512" style="enable-background:new 0 0 512 512;" xml:space="preserve">
<path d="M511.9,332.9c0.1-24.2-16.9-45.1-40.6-50l-26.2-42c-13.8-22.2-39-36-65.8-36h-42.3c0.3-14.3-1.4-28.6-5-42.4
	c15.4-7.3,22-25.7,14.7-41.1l-6.4-13.5C334,94.2,318.6,87.2,304,91.4c-7.5-17.6-20.2-32.4-36.4-42.6c-10.9-6.9-23.2-11.5-36-13.4
	c-1.3-0.2-2.7-0.2-4-0.4c-8.8-26.8-37.7-41.3-64.5-32.5s-41.3,37.7-32.5,64.5c1.5,4.4,3.5,8.6,6.1,12.5c-7,11.3-11.5,23.9-13.3,37
	c-0.6,4.1-0.9,8.3-0.9,12.5c0,14.9,3.5,29.5,10.3,42.8c-11,7.6-15.9,21.4-12.2,34.2c-22.4,3.7-42.4,16.8-53.8,36.2l-27.3,45.9
	c-2.2,0.7-4.5,1.3-6.7,2C7.8,298.5-5.8,325.7,2.5,351c2.7,8.2,7.6,15.4,14,21.1c-10.2,6.1-16.5,17.2-16.5,29.1v34.1
	c0,5.9,1.5,11.6,4.3,16.6c2.8,5.1,9.9,5.7,13.8,1.4h0c2.4-2.7,2.8-6.6,1.1-9.8c-1.3-2.5-2.1-5.3-2.1-8.2v-34.1
	c0-9.4,7.6-17,17.1-17.1h443.6c9.4,0,17,7.6,17.1,17.1v34.1c0,9.4-7.6,17-17.1,17.1H179.2c-4.7,0-8.5,3.8-8.5,8.5l0,0
	c0,4.7,3.8,8.5,8.5,8.5h298.6c18.8,0,34.1-15.3,34.1-34.1v-34.1c0-12.3-6.7-23.6-17.4-29.6C505.6,361.7,511.9,347.7,511.9,332.9
	L511.9,332.9z M430.7,249.9l20.3,32.6l-89.7,7.8l-32-24c-1.5-1.1-3.3-1.7-5.1-1.7h-3.9c7.2-10.4,12.1-22.2,14.5-34.7
	c0.5-2.6,0.9-5.3,1.2-8h43.4C400.3,222,420,232.7,430.7,249.9L430.7,249.9z M325.1,115.1l6.4,13.6c2.8,6.1,0.9,13.3-4.6,17.2
	c-0.6-1.6-1.1-3.2-1.7-4.7l-14.3-33.9C316.7,106.6,322.5,109.7,325.1,115.1L325.1,115.1z M288.7,98.8l20.7,49.1
	c1.8,4.1,3.3,8.2,4.6,12.5c5.3,16.9,7.3,34.8,5.9,52.5c-0.3,4.7-0.9,9.4-1.8,14c-2.2,11.7-7.1,22.7-14.4,32.1
	c-1.7,2.1-3.5,4-5.4,5.8l-75.8,0.7c-17.2-10.7-31.8-25-42.8-42c-2.4-3.7-4.6-7.4-6.7-11.3l-24.6-47.2c-5.7-10.9-8.7-22.9-8.7-35.2
	l0,0c3.4,1.2,7.1-0.5,8.3-3.9l1.4-3.8c1.2-3.4-0.5-7.1-3.9-8.3l-3.9-1.4c1.2-5.3,2.9-10.4,5.1-15.3l13.8,9.2c3,2,7,1.2,9-1.8
	l2.2-3.3c2-3,1.2-7-1.8-9l-14.5-9.7c5.8-7.7,13-14.2,21.2-19.3l9.3,19.7c1.5,3.3,5.4,4.7,8.7,3.1l3.6-1.7c3.3-1.5,4.7-5.4,3.1-8.7
	l-9.3-19.7c8.8-3,18-4.4,27.3-4.1l-4.3,17c-0.9,3.5,1.3,7,4.7,7.9l3.9,1c3.5,0.9,7-1.3,7.9-4.7l4.7-18.9c5.6,1.4,11,3.5,16.1,6.1
	l-1.4,4c-1.2,3.4,0.5,7.1,3.9,8.3l3.8,1.4c3.4,1.2,7.1-0.5,8.3-3.9v0C276.5,77.5,283.9,87.5,288.7,98.8L288.7,98.8z M140.9,187.2
	l17,32.7c0.8,1.6,1.6,3,2.4,4.3c-6.5,1.8-13.3-1.4-16.1-7.5l-6.4-13.4C135.2,197.8,136.5,191.3,140.9,187.2z M179.2,17.2
	c12.3,0,23.7,6.7,29.7,17.5c-23.4,2-45.1,12.6-61.1,29.8c-7.4-17.2,0.5-37.1,17.7-44.5C169.9,18.2,174.5,17.2,179.2,17.2L179.2,17.2
	z M81.7,250.9c9.6-16.3,27-26.9,46.2-28.6l0.8,1.6c7.2,15.4,25.4,22.1,40.9,15c0.1,0,0.2-0.1,0.2-0.1l0.1,0
	c7.8,10.8,16.9,20.6,27.1,29.1L84.2,279.2c-7.1,0.7-14.2,1.8-21.2,3.2L81.7,250.9z M38.4,306.3c15.4-5.1,31.3-8.5,47.5-10.1
	l144.5-14.5h91l15.4,11.5l-99,14.1c-0.6,0.1-1.2,0.2-1.7,0.4L75.3,367H48.3c-17.2,0-31.1-13.9-31.1-31.1
	C17.2,322.5,25.7,310.6,38.4,306.3z M461.6,367H444l-195.8-17.4c-1.2-0.1-2.4,0-3.5,0.4L194.9,367h-70.2L241,324.1l110.5-15.8
	l108.4-9.6h1.6c1.2,0,2.4,0.1,3.6,0.2c17,1.9,29.8,16.4,29.8,33.9C494.9,351.7,479.9,367,461.6,367L461.6,367z"/>
<path d="M184.7,185.3c-5.9,3.7-5.5,12.8,1,15.4c7.4,3,13.1-6.3,25.7-9.2c10.5-3.1,5.4-19.7-5.1-16.3
	C198.7,177.7,191.4,181.1,184.7,185.3z"/>
<path d="M260.9,218.4c-6.5,3.1-13.6,4.6-20.8,4.6l0,0.4c0.2,9.7,9.6,16.7,18.9,13.9c2.3-0.7,4.5-1.5,6.7-2.4
	c9.2-3.9,12.1-15.5,5.7-23.2l0,0C268.2,214.4,264.6,216.6,260.9,218.4L260.9,218.4z"/>
<path d="M214.5,159.6L214.5,159.6c1.5-5.2-2.1-10.5-7.4-10.9c-17.1-1.5-33.2,6.1-42.7,20c-3,4.5-1.1,10.6,3.9,12.6l0,0
	c3.7,1.5,8,0.2,10.3-3.2c6-8.8,16.1-13.5,27-12.5C209.6,166,213.3,163.5,214.5,159.6z"/>
<path d="M242.3,146.3l0.4,0.2c3.7,1.6,8,0.3,10.3-3c6.3-9.1,16.3-13.8,27-12.8c4,0.4,7.7-2,8.9-5.8v0c1.6-5.2-2-10.6-7.5-11
	c-16.8-1-33.7,7.5-42.6,19.8C235.6,138,237.3,144.2,242.3,146.3z"/>
<path d="M231.5,159.1L231.5,159.1c4.3-2,9.4-0.2,11.4,4.1l15,31.9c2,4.3,0.2,9.3-4.1,11.4l0,0c-4.3,2-9.3,0.2-11.4-4.1l-15-31.9
	C225.4,166.2,227.3,161.1,231.5,159.1z"/>
<path d="M269.6,165.4c5.6-3.6,11.7-6.5,18.1-8.5c4.2-1.3,6.7-5.6,5.8-9.8l0,0c-1-4.9-6-8-10.8-6.4c-7.9,2.5-15.4,6-22.4,10.5
	c-4.2,2.7-5.1,8.6-1.9,12.5l0,0C261.1,166.9,265.9,167.7,269.6,165.4z"/>
<path d="M149.8,436.1c-3.9-6.2-10-10.6-17.2-12.2c-4.2-1-8.5-1.2-12.8-0.8c-0.1-0.6-0.2-1.1-0.3-1.6c-1.7-7-6.3-13-12.6-16.6
	c-12.6-7.3-29.1-3.5-36.8,8.4c-2.1,3.3-3.6,7-4.5,10.8c-7.7-1.3-15.7,0.8-21.7,5.7l-0.3,0.2c-5.5,4.3-8.9,10.8-9.4,17.7
	c-0.5,6.9,1.9,13.7,6.6,18.7l0.9,1c2.6,2.8,5.6,5.2,8.9,7.1c-3.4,6.8-3.5,14.7-0.4,21.6c6.3,13.1,21.5,19.2,35.1,14
	c3.9-1.5,7.5-3.6,10.6-6.3c5.2,5.2,12.3,8.2,19.7,8.2c0.6,0,1.3,0,2-0.1c7.2-0.4,14-3.8,18.7-9.3c4.4-5.2,6.6-12,5.9-18.8
	c-0.4-4-1.4-7.8-3.1-11.4c7-3.3,12-9.6,13.8-17C154.5,448.7,153.4,441.8,149.8,436.1L149.8,436.1z M128.8,440.5
	c2.7,0.6,5,2.2,6.5,4.5c1.2,1.9,1.6,4.1,1.1,6.3c-0.9,3.9-4.7,6.5-9,6.6c-6.3-4.6-13.8-7.2-21.5-7.5
	C109.7,442.6,119.2,438.3,128.8,440.5L128.8,440.5z M84.6,422.5c2.7-4.3,9-5.6,13.8-2.8c2.3,1.2,3.9,3.4,4.5,5.9
	c0.3,1.1,0.3,2.3,0.1,3.5c-6.4,4.1-11.3,10.2-14,17.3c-3.3-2.6-5.6-6.2-6.6-10.3C81.2,431.4,82,426.5,84.6,422.5z M51.3,449
	c0.2-2.3,1.3-4.4,3.1-5.8l0.3-0.2c3.4-2.7,8-3,11.7-0.8c2.3,7.2,6.7,13.5,12.7,18c-8.3,4.2-18.4,2.5-24.8-4.3l-0.9-1
	C51.9,453.4,51.2,451.2,51.3,449z M79.2,494.2c-5.1,2-11.2-0.4-13.4-5.1c-1.5-3.3-0.6-7.3,2.2-9.6c0.5,0,1.1,0,1.6,0
	c7.5,0,14.9-2.2,21.1-6.3c0.9,3.5,0.6,7.3-0.8,10.7C88,488.7,84.1,492.4,79.2,494.2L79.2,494.2z M123.3,491.6
	c-1.7,2-4.2,3.2-6.8,3.3c-4.3,0.3-8.3-2-10.2-5.8c2.5-6.9,2.8-14.4,0.7-21.5c9.6,1.1,17.4,8.4,18.3,17.8
	C125.5,487.6,124.8,489.9,123.3,491.6L123.3,491.6z"/>
</svg>
