<?xml version="1.0" encoding="utf-8"?>
<!-- Generator: Adobe Illustrator 24.1.1, SVG Export Plug-In . SVG Version: 6.00 Build 0)  -->
<svg version="1.1" id="Capa_1" xmlns="http://www.w3.org/2000/svg" xmlns:xlink="http://www.w3.org/1999/xlink" x="0px" y="0px"
	 viewBox="0 0 496 496" style="enable-background:new 0 0 496 496;" xml:space="preserve">
<g>
	<g>
		<g>
			<path d="M17.8,168.2l1.7,1.1c3.5,2.3,7.3,4,11.3,5.2c-4.4,5.6-6.7,12.4-6.8,19.5v6.1c0,17.7,14.3,32,32,32h6.1
				c7.1,0,13.9-2.4,19.5-6.8c1.1,4,2.9,7.8,5.2,11.3l1.1,1.7c7.4,11.1,19.9,17.8,33.3,17.8h13.7c13.4,0,25.9-6.7,33.3-17.8l1.1-1.7
				c2.3-3.5,4-7.3,5.2-11.3c5.6,4.4,12.4,6.8,19.5,6.8h6.1c17.7,0,32-14.3,32-32v-6.1c-0.1-7.1-2.5-13.9-6.8-19.5
				c4-1.1,7.8-2.9,11.3-5.2l1.7-1.1c11.1-7.4,17.8-19.9,17.8-33.3v-13.7c0-13.4-6.7-25.9-17.8-33.3l-1.7-1.1
				c-3.5-2.3-7.3-4-11.3-5.2c4.4-5.6,6.7-12.4,6.8-19.5V56c0-17.7-14.3-32-32-32h-6.1c-7.1,0-13.9,2.4-19.5,6.8
				c-1.1-4-2.9-7.8-5.2-11.3l-1.1-1.7C160.8,6.7,148.3,0,134.9,0h-13.7c-13.4,0-25.9,6.7-33.3,17.8l-1.1,1.7
				c-2.3,3.5-4,7.3-5.2,11.3C76,26.4,69.1,24,62.1,24H56c-17.7,0-32,14.3-32,32v6.1c0.1,7.1,2.5,13.9,6.8,19.5
				c-4,1.1-7.8,2.9-11.3,5.2l-1.7,1.1C6.7,95.3,0,107.7,0,121.1v13.7C0,148.3,6.7,160.7,17.8,168.2z M85.7,180.3
				c-3.7,6.2-5.7,13.3-5.7,20.6v3.8l-6.6,6.6c-3,3-7.1,4.7-11.3,4.7H56c-8.8,0-16-7.2-16-16v-6.1c0-4.2,1.7-8.3,4.7-11.3l6.6-6.6
				h3.8c7.3,0,14.4-2,20.6-5.7l25-15L85.7,180.3z M160,214.3c0,4.7-1.4,9.4-4,13.3l-1.1,1.7c-4.4,6.7-12,10.7-20,10.7h-13.7
				c-8,0-15.6-4-20-10.7l-1.1-1.7c-2.6-3.9-4-8.6-4-13.3v-13.4c0-4.4,1.2-8.6,3.4-12.4l18.2-30.4c0.8,0.3,1.6,0.5,2.4,0.7v9.2
				c0,4.4,3.6,8,8,8h0c4.4,0,8-3.6,8-8v-9.1c0.8-0.2,1.6-0.5,2.4-0.7l18.2,30.4c2.2,3.7,3.4,8,3.4,12.3V214.3z M112,128
				c0-8.8,7.2-16,16-16s16,7.2,16,16s-7.2,16-16,16S112,136.8,112,128z M216,200c0,8.8-7.2,16-16,16h-6.1c-4.2,0-8.3-1.7-11.3-4.7
				l-6.6-6.6v-3.8c0-7.3-2-14.4-5.7-20.6l-15-25l25,15c6.2,3.7,13.3,5.7,20.6,5.7h3.8l6.6,6.6c3,3,4.7,7.1,4.7,11.3V200z M227.6,100
				l1.7,1.2c6.7,4.5,10.7,11.9,10.7,20v13.7c0,8-4,15.5-10.7,20l-1.7,1.1c-3.9,2.6-8.6,4-13.3,4h-13.4c-4.4,0-8.6-1.2-12.4-3.4
				l-30.4-18.2c0.3-0.8,0.5-1.6,0.7-2.4h9.2c4.4,0,8-3.6,8-8v0c0-4.4-3.6-8-8-8h-9.1c-0.2-0.8-0.5-1.6-0.7-2.4l30.4-18.2
				c3.7-2.2,8-3.4,12.3-3.4h13.4C219,96,223.7,97.4,227.6,100z M170.3,75.7c3.7-6.2,5.7-13.3,5.7-20.6v-3.8l6.6-6.6
				c3-3,7.1-4.7,11.3-4.7h6.1c8.8,0,16,7.2,16,16v6.1c0,4.2-1.7,8.3-4.7,11.3l-6.6,6.6h-3.8c-7.3,0-14.4,2-20.6,5.7l-25,15
				L170.3,75.7z M96,41.7c0-4.7,1.4-9.4,4-13.3l1.1-1.7c4.4-6.7,12-10.7,20-10.7h13.7c8,0,15.6,4,20,10.7l1.1,1.7
				c2.6,3.9,4,8.6,4,13.3v13.4c0,4.3-1.2,8.6-3.4,12.4l-18.2,30.4c-0.8-0.3-1.6-0.5-2.4-0.7V88c0-4.4-3.6-8-8-8h0c-4.4,0-8,3.6-8,8
				v9.1c-0.8,0.2-1.6,0.5-2.4,0.7L99.4,67.5c-2.2-3.7-3.4-8-3.4-12.3V41.7z M40,56c0-8.8,7.2-16,16-16h6.1c4.2,0,8.3,1.7,11.3,4.7
				l6.6,6.6v3.8c0,7.3,2,14.4,5.7,20.6l15,25l-25-15C69.5,82,62.4,80,55.1,80h-3.8l-6.6-6.6c-3-3-4.7-7.1-4.7-11.3V56z M16,121.1
				c0-8,4-15.5,10.7-20l1.7-1.1c3.9-2.6,8.6-4,13.3-4h13.4c4.4,0,8.6,1.2,12.4,3.4l30.4,18.2c-0.3,0.8-0.5,1.6-0.7,2.4H88
				c-4.4,0-8,3.6-8,8v0c0,4.4,3.6,8,8,8h9.1c0.2,0.8,0.5,1.6,0.7,2.4l-30.4,18.2c-3.7,2.2-8,3.4-12.3,3.4H41.7
				c-4.7,0-9.4-1.4-13.3-4l-1.7-1.1c-6.7-4.5-10.7-12-10.7-20V121.1z"/>
			<path d="M488,272H152c-4.4,0-8,3.6-8,8v32c0.1,71.6,50.1,133.4,120,148.5V488c0,4.4,3.6,8,8,8h96c4.4,0,8-3.6,8-8v-27.5
				c69.9-15.1,119.9-77,120-148.5v-32C496,275.6,492.4,272,488,272z M160,288h288v16H160V288z M360,480h-80v-16.9
				c5.3,0.6,10.7,0.9,16,0.9h48c5.3,0,10.7-0.3,16-0.9V480z M480,312c-0.1,75.1-60.9,135.9-136,136h-48
				c-71.9-0.1-131.3-56.2-135.6-128h286.3c-8,55-55.1,95.9-110.7,96l0,0c-4.4,0-8,3.6-8,8v0c0,4.4,3.6,8,8,8l0,0
				c70.7-0.1,127.9-57.3,128-128v-16h16V312z"/>
			<path d="M9,352.1c-4.4-0.5-8.4,2.6-8.9,6.9c-0.1,0.7-0.1,1.3,0,2c0.2,1.4,18.1,135,119.9,135c2.1,0,4.2-0.8,5.7-2.3l16-16
				c1.5-1.5,2.3-3.5,2.3-5.7C144,370.1,10.3,352.2,9,352.1z M64,416L64,416c-3.1,3.1-3.1,8.2,0,11.3l52.6,52.6
				c-69.2-2.5-92.4-80.7-98.7-110c29.3,6.3,107.5,29.5,110,98.7L75.3,416C72.2,412.9,67.1,412.9,64,416z"/>
			<path d="M322.3,205.7c1.5,1.5,3.5,2.3,5.7,2.3c101.9,0,119.8-133.7,119.9-135c0.5-4.4-2.6-8.4-6.9-8.9c-0.7-0.1-1.3-0.1-2,0
				c-1.4,0.2-135,18.1-135,119.9c0,2.1,0.8,4.2,2.3,5.7L322.3,205.7z M430.1,81.9c-6.3,29.3-29.5,107.5-98.7,110l52.6-52.6
				c3.1-3.1,3.1-8.2,0-11.3v0c-3.1-3.1-8.2-3.1-11.3,0l-52.6,52.6C322.5,111.4,400.8,88.2,430.1,81.9z"/>
		</g>
	</g>
</g>
</svg>
