<?xml version="1.0" encoding="utf-8"?>
<!-- Generator: Adobe Illustrator 24.1.1, SVG Export Plug-In . SVG Version: 6.00 Build 0)  -->
<svg version="1.1" id="Line_cutting_stroke_Ex" xmlns="http://www.w3.org/2000/svg" xmlns:xlink="http://www.w3.org/1999/xlink"
	 x="0px" y="0px" viewBox="0 0 512 512" style="enable-background:new 0 0 512 512;" xml:space="preserve">
<g>
	<path d="M471.4,52.4c-0.7-1.3-1.8-2.4-3.2-3.2l-18.8-10.3l-10.3-18.8c-2.1-3.9-7-5.3-10.9-3.2c-1.3,0.7-2.5,1.8-3.2,3.2l-10.3,18.8
		l-18.8,10.3c-3.9,2.1-5.3,7-3.2,10.9c0.7,1.3,1.8,2.5,3.2,3.2l18.8,10.3l10.3,18.8c2.1,3.9,7,5.3,10.9,3.2c1.3-0.7,2.4-1.8,3.2-3.2
		l10.3-18.8l18.8-10.3C472.1,61.1,473.6,56.2,471.4,52.4z M439.8,60.6c-1.4,0.7-2.5,1.8-3.2,3.2l-4.4,8l-4.4-8
		c-0.7-1.3-1.8-2.5-3.2-3.2l-8-4.4l8-4.4c1.3-0.7,2.5-1.8,3.2-3.2l4.4-8l4.4,8c0.7,1.4,1.8,2.5,3.2,3.2l8,4.4L439.8,60.6z"/>
	<path d="M95,196.4c-0.7-1.3-1.8-2.4-3.2-3.2l-18.8-10.3l-10.3-18.8c-2.1-3.9-7-5.3-10.9-3.2c-1.3,0.7-2.4,1.8-3.2,3.2l-10.3,18.8
		l-18.8,10.3c-3.9,2.1-5.3,7-3.2,10.9c0.7,1.3,1.8,2.5,3.2,3.2l18.8,10.3l10.3,18.8c2.1,3.9,7,5.3,10.9,3.2c1.3-0.7,2.5-1.8,3.2-3.2
		l10.3-18.8l18.8-10.3C95.7,205.1,97.1,200.2,95,196.4z M63.3,204.6c-1.3,0.7-2.5,1.8-3.2,3.2l-4.4,8l-4.4-8
		c-0.7-1.3-1.8-2.5-3.2-3.2l-8-4.4l8-4.4c1.4-0.7,2.5-1.8,3.2-3.2l4.4-8l4.4,8c0.7,1.4,1.8,2.5,3.2,3.2l8,4.4L63.3,204.6z"/>
	<path d="M480.7,481L480.7,481c-3.1,0-5.9-1.7-7.2-4.5L436.8,401c-0.2-0.3-0.3-0.6-0.4-1l-7.3-21.9c-0.3-0.8-0.4-1.7-0.4-2.5
		c0-3.3,2.1-6.5,5.5-7.6c4.2-1.4,8.7,0.9,10.1,5.1l7.1,21.4l36.5,75.1C490.5,474.8,486.6,481,480.7,481z"/>
	<path d="M345.4,243.5c0.1,0.1,0.1,0.3,0.2,0.4l36.5,95.7c0.8,2.2,0.7,4.6-0.5,6.7c-2.1,3.9-7.1,5.1-11,3.1l-27-14.2
		c-3.5-1.8-7.6-1.9-11.1,0l38.8,54.1l32.7,17.2c1.9,1,3.3,2.7,3.9,4.7l19,59.6c1.6,5.2-2.2,10.4-7.6,10.4h0c-3.5,0-6.6-2.3-7.6-5.6
		l-18-56.5l-31.5-16.5c-1.1-0.6-2-1.4-2.8-2.4l-44.2-61.7c-2.3-3.2-1.9-7.7,1-10.4l2.5-2.4c8.7-8.3,21.8-10.2,32.4-4.5l8.5,4.5
		l-28.9-75.7c-0.4-0.9-0.8-1.9-1.1-2.9c-4.6-14.8,3.7-30.4,18.5-35l1.5-0.5c3.2-1,6.7,0.1,8.8,2.9l52.1,69.8
		c5.1,6.5,9,13.9,11.5,21.8l12,36c0.3,0.8,0.4,1.7,0.4,2.5c0,3.4-2.1,6.5-5.5,7.6c-4.2,1.4-8.7-0.9-10.1-5.1l-12-36.1
		c0-0.1,0-0.1,0-0.2c-1.9-6.1-4.9-11.8-8.8-16.8c0,0-0.1-0.1-0.1-0.2l-48.4-64.8C344.8,232.3,343.1,238.3,345.4,243.5z"/>
	<path d="M196.8,338.3L152.6,400c-0.7,1-1.7,1.8-2.8,2.4L118.4,419l-18,56.5c-1.1,3.3-4.1,5.6-7.6,5.6h0c-5.4,0-9.3-5.3-7.6-10.4
		l19-59.6c0.6-2,2-3.7,3.9-4.7l32.7-17.2l38.8-54.1c-3.5-1.8-7.6-1.8-11.1,0l-27.3,14.4c-2,1.1-4.4,1.2-6.6,0.4
		c-4.1-1.6-6.2-6.2-4.6-10.3l36.5-95.7c0-0.1,0.1-0.3,0.2-0.4c2.3-5.2,0.7-11.2-3.9-14.6l-48.4,64.8c0,0.1-0.1,0.1-0.1,0.2
		c-4,5-6.9,10.7-8.8,16.8c0,0.1,0,0.1,0,0.2L75.6,400c-0.1,0.3-0.3,0.6-0.4,1l-36.6,75.5c-1.3,2.8-4.1,4.5-7.2,4.5h0
		c-5.9,0-9.8-6.2-7.2-11.5l36.4-75.1l29.5-88.6c2.5-7.9,6.3-15.3,11.5-21.8l52.1-69.8c2-2.7,5.5-3.9,8.8-2.9l1.5,0.5
		c1,0.3,1.9,0.6,2.9,1.1c14.2,6.1,20.7,22.6,14.6,36.8l-28.9,75.7l8.5-4.5c10.7-5.6,23.7-3.8,32.4,4.5l2.5,2.4
		C198.7,330.6,199.2,335.1,196.8,338.3z"/>
	<path d="M378.8,88.9l-2.3-1.7c-5.4-3.9-10.9-7.6-16.6-10.9c-1.5-16.5-12.7-31.5-31.9-42.8C308.6,22.2,283,16,256,16
		s-52.6,6.2-71.9,17.5c-19.2,11.2-30.5,26.3-31.9,42.8c-5.7,3.4-11.2,7-16.6,10.9l-2.3,1.7c-7.6,5.5-14.1,12.2-19.4,19.8
		c-2.7,3.9-1.4,9.2,2.8,11.5h0c3.6,2,8.1,0.9,10.4-2.4c4.3-6.1,9.6-11.6,15.7-16l2.3-1.7C211.2,52,300.8,52,367,100.1l2.3,1.7
		c26.4,19.2,35.3,54.5,21.2,83.9c-6.5-4.9-14.2-8.1-22.3-9.2c-6.5-20-17-36.1-31.4-48c-14.6-12-33.4-19.7-55.8-22.8
		c-4.5-0.6-8.7,2.7-9.1,7.2c0,0.2,0,0.5,0,0.7c0,4,2.9,7.4,6.9,7.9c37,5.1,61,23.4,72.7,55.6c-3.9,0.8-7.6,2.2-11.1,3.9
		c-16.3-6.9-35.1,0.8-42,17c-3.2,7.6-3.4,16.1-0.4,23.8c-21.4,15.1-28,43.8-15.6,66.8c-6.9,9-10.6,20-10.5,31.3
		c0,17.5,8,32.6,20.5,41.6C279.6,371,266.9,376,256,376s-23.6-5-36.5-14.4c12.5-9,20.5-24.2,20.5-41.6c0-11.3-3.7-22.3-10.5-31.3
		c12.5-23,5.8-51.7-15.6-66.8c6.3-16.5-2-35-18.5-41.3c-7.7-3-16.3-2.8-23.9,0.4c-3.5-1.8-7.2-3.1-11.1-3.9
		c6.2-16.9,16-30.2,29.1-39.5c14.9-10.6,34.7-16.5,58.8-17.5c4.3-0.2,7.7-3.7,7.7-8v0c0-4.5-3.8-8.2-8.3-8c-27.3,1.1-50,8-67.5,20.4
		c-17,12.1-29.3,29.5-36.5,51.8c-8.1,1.1-15.8,4.3-22.3,9.3c-6.1-12.7-8-26.8-5.7-40.5c0.7-4-1.8-7.9-5.7-9
		c-0.7-0.2-1.5-0.3-2.2-0.3c-3.8,0-7.2,2.7-7.9,6.6c-3.2,19,0.2,38.7,9.9,55.6c-8.9,13.5-10.9,30.2-5.8,45.2
		c1.6,4.8,7.1,6.9,11.5,4.4c2.6-1.5,4.1-4.1,4.1-6.9c0-0.8-0.1-1.7-0.4-2.5c-1.3-3.7-1.9-7.7-1.9-11.6c0-19,14.8-34.5,32.9-34.5
		c6,0,11.8,1.7,16.9,4.9c2.6,1.6,5.9,1.6,8.5,0c7.5-4.7,17.4-2.3,22,5.2c3.5,5.6,3.2,12.8-0.8,18.1c-2.7,3.5-2,8.5,1.5,11.2
		c0.5,0.4,1,0.7,1.5,0.9c12.1,5.5,19.9,17.9,19.9,31.7c0,7.5-2.3,14.8-6.7,20.8c-2.3,3.2-2,7.5,0.8,10.3
		c6.5,6.6,10.2,15.6,10.1,24.9c0,17-10.9,30.8-25.7,33.9c-3.7,0.8-6.3,4-6.3,7.8c0,4.5,3.7,8,8,8c0.5,0,1.1-0.1,1.7-0.2
		c0.5-0.1,1.1-0.2,1.7-0.4c0.4,0.4,0.5,0.6,1,1l-10.7,39L134.3,421c-4.3,0.9-7.2,5.1-6.3,9.4c0.8,3.8,4.1,6.4,7.8,6.4
		c0.5,0,1,0,1.6-0.2l64.2-12.8c3-0.6,5.3-2.8,6.1-5.7l10.5-38.1c13,7.9,25.8,12,37.8,12s24.8-4.1,37.8-12l10.5,38.1
		c0.8,2.9,3.2,5.1,6.1,5.7l64.2,12.8c4.3,0.9,8.5-1.9,9.4-6.3c0.1-0.5,0.2-1.1,0.2-1.6c0-3.7-2.6-7.1-6.4-7.8l-59.3-11.9l-10.7-39
		c0.4-0.4,0.5-0.6,1-1c0.6,0.1,1.1,0.3,1.7,0.4c5,1,9.7-2.7,9.7-7.8c0-1.9-0.7-3.7-1.8-5c-1.1-1.4-2.7-2.4-4.5-2.8
		C298.9,350.8,288,337,288,320c-0.1-9.3,3.6-18.3,10.1-24.9c2.8-2.8,3.1-7.2,0.8-10.3c-4.4-6.1-6.7-13.3-6.7-20.8
		c0-13.7,7.7-26.1,19.6-31.6c2.9-1.4,5-4.3,5-7.5c0-1.8-0.6-3.4-1.6-4.7c-2.1-2.8-3.3-6.2-3.2-9.7c0-10.1,9.3-17.9,19.8-15.6
		c1.7,0.4,3.3,1.2,4.8,2.1c2.6,1.5,5.8,1.5,8.3-0.1c5.1-3.2,10.9-4.9,16.9-4.9c18.1,0,32.9,15.5,32.9,34.5c0,4-0.6,7.9-1.9,11.6
		c-1.2,3.6,0.3,7.6,3.7,9.5c1.3,0.7,2.6,1,3.9,1c3.3,0,6.5-2.1,7.6-5.5c5.1-15,3.1-31.7-5.8-45.2C423.3,161,413.3,114,378.8,88.9z
		 M256,48c-29,0-57.6,6.1-84,18c11.3-19.4,45.2-34,84-34s72.7,14.5,84,34C313.6,54.1,285,47.9,256,48z"/>
</g>
</svg>
