<svg xmlns="http://www.w3.org/2000/svg" viewBox="0 0 1059.74 240.93"><defs><style>.cls-1{fill:#fff4d4;}.cls-2{font-size:55.79px;fill:#fff;font-family:Calibri-Bold, Calibri;font-weight:700;letter-spacing:0.2em;}.cls-3{letter-spacing:0.19em;}.cls-4{letter-spacing:0.2em;}.cls-5{letter-spacing:0.13em;}.cls-6{letter-spacing:0.18em;}.cls-7{letter-spacing:0.13em;}</style></defs><g id="Layer_2" data-name="Layer 2"><g id="Layer_4" data-name="Layer 4"><path class="cls-1" d="M120.46,0A120.61,120.61,0,0,0,0,120.46a119.39,119.39,0,0,0,23.13,71,120.44,120.44,0,0,0,195.78-1.52A119.17,119.17,0,0,0,241,120.46C241,54.05,186.92,0,120.46,0Zm92.06,184.73L202.42,181c-.58-.29-17.52-5.47-31.58,1.54A210.26,210.26,0,0,1,149,192.11a78.25,78.25,0,0,1-11.05,3.71,6.78,6.78,0,0,1-1,.29A55.36,55.36,0,0,1,124,198.05a48.9,48.9,0,0,1-5.44,0,55.34,55.34,0,0,1-13-2c-.37-.08-.74-.16-1.16-.29-5.93-1.65-10.63-3.58-10.72-3.58s-12-4.7-25-11.22c-14.06-7-27.87-.29-28.24-.08l-11.54,4.33A111.16,111.16,0,0,1,8.2,120.46a112.3,112.3,0,1,1,224.6,0A110.72,110.72,0,0,1,212.52,184.73Z"/><path class="cls-1" d="M130.63,175.84c4.84-12.94,26.73-65.42,62.72-64.24a1.7,1.7,0,0,1,1.63,1.77c-.5,9.07-5.84,52.19-62.39,64.69A1.69,1.69,0,0,1,130.63,175.84Z"/><path class="cls-1" d="M132.09,61.49,120.58,75.05s-9.09-10.82-11.67-13.41l11.52-20.3Z"/><path class="cls-1" d="M166.73,107.66s1.19-5,2.05-18.07l17.73-5.11-1.37,18.75S173,105.19,166.73,107.66Z"/><path class="cls-1" d="M74.19,107.66s-1.18-5-2-18.07L54.42,84.48l1.36,18.75S67.91,105.19,74.19,107.66Z"/><path class="cls-1" d="M110.3,175.84c-4.84-12.94-26.73-65.42-62.72-64.24A1.69,1.69,0,0,0,46,113.37c.5,9.07,5.83,52.19,62.39,64.69A1.69,1.69,0,0,0,110.3,175.84Z"/><path class="cls-1" d="M154.16,112.88s0,0,0,0a35.39,35.39,0,0,1-2.35,4.51,0,0,0,0,0,0,0,.19.19,0,0,1,0,.11l-28.37,44.58,0,0-.61,1a1.58,1.58,0,0,1-.49.53,2.68,2.68,0,0,1-1.17.65,1.87,1.87,0,0,1-.61.11,1.29,1.29,0,0,1-.53-.11,2,2,0,0,1-1.17-.65,1.71,1.71,0,0,1-.5-.53l-.6-1,0,0L89.2,117.57a.16.16,0,0,1,0-.11s0,0,0,0a1.92,1.92,0,0,1-.16-.23,35.46,35.46,0,0,1-2.19-4.28s0,0,0,0c-3.71-8.26-9.43-27.24-1-54.32a.11.11,0,0,1,.07,0s.08,0,.11,0c.38.19,1.33.68,2.69,1.51.46.27,1,.61,1.52,1,.83.49,1.7,1.06,2.69,1.74.41.31.87.61,1.32.95.84.61,1.67,1.25,2.58,1.93,2.08,1.63,4.39,3.6,6.74,5.83q3.18,3,6.48,6.82c.87,1.06,1.78,2.16,2.69,3.3v0a84.7,84.7,0,0,1,7.61,11.63h.38a84.7,84.7,0,0,1,7.61-11.63v0c.91-1.14,1.82-2.24,2.69-3.3a87.75,87.75,0,0,1,6.48-6.82c1.17-1.13,2.34-2.15,3.44-3.14l1.44-1.21c.65-.49,1.25-1,1.86-1.48.91-.68,1.74-1.32,2.57-1.93.46-.34.91-.64,1.33-.95s.95-.64,1.4-.94.87-.57,1.29-.8,1.06-.68,1.51-1c1.37-.83,2.31-1.32,2.69-1.51,0,0,.08,0,.12,0a.09.09,0,0,1,.07,0C163.59,85.64,157.87,104.62,154.16,112.88Z"/><path class="cls-1" d="M347.82,26.85c23.05,0,47.72,4.63,47.72,30.05S370.87,87,347.82,87h-6.51a5.4,5.4,0,0,0-5,5V118.9a5.41,5.41,0,0,0,5,5V127H310v-3.13a5.39,5.39,0,0,0,5-5V35a5.39,5.39,0,0,0-5-5V26.85Zm0,57c14,0,25.18-9.14,25.18-26.93S361.85,30,347.82,30h-6.51a5.41,5.41,0,0,0-5,5V78.82a5.41,5.41,0,0,0,5,5Z"/><path class="cls-1" d="M464.16,118.9a5.39,5.39,0,0,0,5,5V127h-23.8V116.77c-3.51,5.63-11.9,12-21.92,12s-20.41-4.88-20.41-18.41c0-24.3,44.83-16.16,42-36.57-.89-6.39-5.39-9.39-11.78-9.39-13.52,0-17.53,11.89-17.53,21.41h-5.89V63.17C420.08,62,425,61.41,433.23,61.41c22,0,30.93,13.28,30.93,33.57Zm-18.78-9.77V95c0-.38.12-5.89,0-11.4-2.25,7.76-22.42,13.9-22.42,26.8,0,6.64,3.13,10.77,9,10.77S444.12,114.76,445.38,109.13Z"/><path class="cls-1" d="M495.46,95.1c0,18.54,6.39,30.69,17.17,30.69,11.51,0,15.9-11.9,15.9-21.42h5.89V127c-10.28,1.12-13.53,1.75-21.79,1.75-22.42,0-37.2-13.53-37.2-33.69s14.78-33.69,37.2-33.69c8.26,0,11.51.63,21.79,1.76V85.83h-5.89c0-9.52-4.39-21.41-15.9-21.41C501.85,64.42,495.46,76.57,495.46,95.1Z"/><path class="cls-1" d="M564.47,118.9a5.4,5.4,0,0,0,5,5V127h-23.8V71.3a5.38,5.38,0,0,0-5-5V63.17h23.79ZM543.18,41.75a10,10,0,1,1,10,10A10.05,10.05,0,0,1,543.18,41.75Z"/><path class="cls-1" d="M615.43,63.17V66.3H603.28a5.38,5.38,0,0,0-5,5v47.6a5.39,5.39,0,0,0,5,5V127H579.5V71.3a5.39,5.39,0,0,0-5-5V63.17h5V54.4c0-13.53,7.88-28.93,26.67-28.93A20.51,20.51,0,0,1,621.32,32l-7.76,9.14s-.63-12.64-7.39-12.64c-6.38,0-7.89,14.9-7.89,25.92v8.77Z"/><path class="cls-1" d="M648.24,118.9a5.4,5.4,0,0,0,5,5V127H629.46V71.3a5.38,5.38,0,0,0-5-5V63.17h23.79ZM627,41.75a10,10,0,1,1,10,10A10,10,0,0,1,627,41.75Z"/><path class="cls-1" d="M679.55,95.1c0,18.54,6.39,30.69,17.15,30.69,11.53,0,15.91-11.9,15.91-21.42h5.89V127c-10.27,1.12-13.53,1.75-21.8,1.75-22.41,0-37.19-13.53-37.19-33.69s14.78-33.69,37.19-33.69c8.27,0,11.53.63,21.8,1.76V85.83h-5.89c0-9.52-4.38-21.41-15.91-21.41C685.94,64.42,679.55,76.57,679.55,95.1Z"/><path class="cls-1" d="M840.59,125.53a245.19,245.19,0,0,1-26.3,1.51c-30.3,0-55.73-12.52-55.73-50.1S784,26.85,814.29,26.85A213.47,213.47,0,0,1,839,28.35V49.52h-5.88c0-9.52-5.27-19.54-18.8-19.54-15.39,0-33.18,11.77-33.18,47s17.79,47,33.18,47c13.53,0,20.42-10,20.42-19.54h5.88Z"/><path class="cls-1" d="M910.47,118.9a5.4,5.4,0,0,0,5,5V127h-23.8V116.77c-3.5,5.63-11.89,12-21.91,12s-20.41-4.88-20.41-18.41c0-24.3,44.84-16.16,41.95-36.57-.87-6.39-5.39-9.39-11.77-9.39C866,64.42,862,76.31,862,85.83h-5.88V63.17c10.27-1.13,15.15-1.76,23.42-1.76,22,0,30.93,13.28,30.93,33.57Zm-18.79-9.77V95c0-.38.13-5.89,0-11.4-2.25,7.76-22.41,13.9-22.41,26.8,0,6.64,3.13,10.77,9,10.77S890.44,114.76,891.68,109.13Z"/><path class="cls-1" d="M944.28,118.9a5.39,5.39,0,0,0,5,5V127H925.5V35a5.4,5.4,0,0,0-5-5V26.85h23.8Z"/><path class="cls-1" d="M1054.74,118.9a5.39,5.39,0,0,0,5,5V127H1036V79.82c0-7.13-3.76-10.77-10.15-10.77-3.63,0-7.38,2.38-10,5.51a23,23,0,0,1,.64,5.26V118.9a5.39,5.39,0,0,0,5,5V127h-23.8V79.82c0-7.13-3.75-10.77-10.14-10.77-3.38,0-6.76,2-9.39,4.89v45a5.4,5.4,0,0,0,5,5V127H959.3V71.3a5.38,5.38,0,0,0-5-5V63.17h23.79v5.51A27.18,27.18,0,0,1,996,61.41c7.27,0,14.91,2.63,18.42,9.4,4.13-4.76,11.39-9.4,19.91-9.4,9.89,0,20.42,4.89,20.42,18.41Z"/><text class="cls-2" transform="translate(309.33 207.5) scale(1 0.95)">H<tspan class="cls-3" x="46.35" y="0">E</tspan><tspan class="cls-4" x="84.04" y="0">A</tspan><tspan class="cls-5" x="129" y="0">L</tspan><tspan x="159.66" y="0">TH C</tspan><tspan class="cls-6" x="309.24" y="0">L</tspan><tspan class="cls-4" x="342.62" y="0">UB &amp; S</tspan><tspan class="cls-7" x="568.15" y="0">P</tspan><tspan x="605.21" y="0">A</tspan></text></g></g></svg>